<?xml version="1.0" standalone="yes"?>
<svg xmlns="http://www.w3.org/2000/svg" width="258" height="99">
<path style="fill:#000000; stroke:none;" d="M141 20C140.05 20.3932 133.486 21.7658 134.106 22.6065C137.88 27.7222 150.564 21.7595 155.153 28.1065C157.386 31.1954 144.623 29.9003 145.366 31.6481C146.641 34.6498 155.179 32.1851 157.764 34.4769C161.927 38.1676 155.551 41.7993 157.213 45.5231C158.676 48.8031 176.934 47.5818 179.977 46.3704C182.578 45.3348 184.909 42.3887 182.519 39.912C179.039 36.3061 173.038 36.2178 169.06 33.3889C159.542 26.6206 151.845 20.4744 141 15.3657C138.62 14.2444 134.172 10.5161 131.495 10.8889C126.735 11.5518 138.575 19.6265 141 20M24 96C27.9878 97.4523 33.276 93.9527 37 92.2315C45.7599 88.1827 55.5978 84.8526 65 82.6435C103.978 73.4855 143.637 59.9221 184 60C196.205 60.0235 209.032 62.4507 221 64.8009C222.642 65.1234 231.688 68.2223 232.634 66.3056C233.318 64.9195 221.338 61.1079 220 60.6667C205.31 55.8209 190.232 53.941 175 51.8843C157.245 49.4868 139.06 55.8554 122 60.1204C98.9882 65.8733 75.9715 70.0708 54 79.412C43.3204 83.9525 34.1021 90.5103 24 96z"/>
</svg>
